<svg viewBox="0 0 50 50" fill="none"
  xmlns="http://www.w3.org/2000/svg">
  <path d="M17.7537 27.6455H32.2464" stroke="#170E19" stroke-width="6" stroke-linecap="round" stroke-linejoin="round"/>
  <path d="M3.26099 10.4497C3.26099 9.22044 3.26099 8.60583 3.35381 8.09472C3.735 5.99583 5.23306 4.35509 7.14944 3.9376C7.61611 3.83594 8.17727 3.83594 9.29963 3.83594H25.0001H40.7006C41.8231 3.83594 42.3842 3.83594 42.8508 3.9376C44.7673 4.35509 46.2653 5.99583 46.6465 8.09472C46.7392 8.60583 46.7392 9.22044 46.7392 10.4497C46.7392 11.679 46.7392 12.2936 46.6465 12.8047C46.2653 14.9036 44.7673 16.5443 42.8508 16.9618C42.3842 17.0635 41.8231 17.0635 40.7006 17.0635H25.0001H9.29963C8.17727 17.0635 7.61611 17.0635 7.14944 16.9618C5.23306 16.5443 3.735 14.9036 3.35381 12.8047C3.26099 12.2936 3.26099 11.679 3.26099 10.4497Z" stroke="#170E19" stroke-width="6" stroke-linejoin="round"/>
  <path d="M5.67627 17.0635V35.5817C5.67627 40.5704 5.67627 43.0645 7.09122 44.6143C8.50615 46.1637 10.7835 46.1637 15.3381 46.1637H17.7536H32.2463H34.6618C39.2164 46.1637 41.4937 46.1637 42.9086 44.6143C44.3236 43.0645 44.3236 40.5704 44.3236 35.5817V17.0635" stroke="#170E19" stroke-width="6" stroke-linecap="round" stroke-linejoin="round"/>
</svg>
