<svg xmlns="http://www.w3.org/2000/svg" viewBox="0 0 24 24" fill="#170E19">
  <path d="M8 12C8 11.4477 8.44772 11 9 11H15C15.5523 11 16 11.4477 16 12C16 12.5523 15.5523 13 15 13H9C8.44772 13 8 12.5523 8 12Z" />
  <path fill-rule="evenodd" clip-rule="evenodd" d="M4 3C2.89543 3 2 3.89543 2 5V7C2 8.10457 2.89543 9 4 9L4 18C4 19.6569 5.34315 21 7 21H17C18.6569 21 20 19.6569 20 18V9C21.1046 9 22 8.10457 22 7V5C22 3.89543 21.1046 3 20 3H4ZM18 9H6V18C6 18.5523 6.44772 19 7 19H17C17.5523 19 18 18.5523 18 18V9ZM20 7V5H4V7H20Z"/>
</svg>