<?xml version="1.0" encoding="UTF-8"?>
<!DOCTYPE svg PUBLIC "-//W3C//DTD SVG 1.1//EN" "http://www.w3.org/Graphics/SVG/1.1/DTD/svg11.dtd">
<svg xmlns="http://www.w3.org/2000/svg" version="1.1" width="388px" height="471px" style="shape-rendering:geometricPrecision; text-rendering:geometricPrecision; image-rendering:optimizeQuality; fill-rule:evenodd; clip-rule:evenodd" xmlns:xlink="http://www.w3.org/1999/xlink">
  <g>
    <path style="opacity:0.993" fill="#f5c2e4" d="M 72.5,-0.5 C 76.5,-0.5 80.5,-0.5 84.5,-0.5C 98.9068,6.73059 110.74,17.0639 120,30.5C 152.016,81.5483 170.683,137.215 176,197.5C 176.703,211.849 176.536,226.183 175.5,240.5C 183.86,240.831 192.193,240.498 200.5,239.5C 196.939,171.819 211.439,108.152 244,48.5C 252.253,33.9061 262.42,20.7394 274.5,9C 279.434,5.038 284.767,1.87133 290.5,-0.5C 294.833,-0.5 299.167,-0.5 303.5,-0.5C 309.758,2.58988 314.592,7.25655 318,13.5C 324.72,30.1491 327.887,47.4825 327.5,65.5C 324.913,131.878 306.246,193.212 271.5,249.5C 306.457,257.89 336.957,274.223 363,298.5C 375.364,311.671 383.53,327.005 387.5,344.5C 387.5,351.833 387.5,359.167 387.5,366.5C 382.826,386.669 372.826,403.835 357.5,418C 327.675,442.295 293.675,457.962 255.5,465C 242.754,467.319 230.088,469.152 217.5,470.5C 201.5,470.5 185.5,470.5 169.5,470.5C 127.068,467.524 87.4015,455.357 50.5,434C 31.181,422.348 16.3477,406.515 6,386.5C 3.29265,379.881 1.12598,373.214 -0.5,366.5C -0.5,359.167 -0.5,351.833 -0.5,344.5C 5.78536,319.458 19.452,299.292 40.5,284C 60.602,269.617 82.602,258.95 106.5,252C 90.7931,230.088 78.6264,206.255 70,180.5C 54.2288,137.54 47.2288,93.2066 49,47.5C 49.6743,31.8081 54.5076,17.6415 63.5,5C 66.2632,2.6258 69.2632,0.792465 72.5,-0.5 Z" />
  </g>
</svg>