<?xml version="1.0" encoding="UTF-8" standalone="no"?>
<!DOCTYPE svg PUBLIC "-//W3C//DTD SVG 1.1//EN" "http://www.w3.org/Graphics/SVG/1.1/DTD/svg11.dtd">
<svg xmlns="http://www.w3.org/2000/svg" xmlns:xlink="http://www.w3.org/1999/xlink" version="1.1"
  width="1000" height="500" viewBox="0 0 1000 500">
  <rect width="100%" height="100%" fill="#261829" />
  <g transform="matrix(1.52 0 0 0.92 500 300)" id="YHhUaRCmDxZuGZzqE1Nhv">
    <path
      style="stroke: rgb(35,163,41); stroke-width: 0; stroke-dasharray: none; stroke-linecap: butt; stroke-dashoffset: 0; stroke-linejoin: miter; stroke-miterlimit: 4; fill: #170e19; fill-rule: nonzero; opacity: 1;"
      vector-effect="non-scaling-stroke" transform=" translate(0, 0)"
      d="M 0 -44.60526 C 24.62211 -44.60526 44.60526 -24.6221 44.60526 0 C 44.60526 24.62211 24.6221 44.60526 0 44.60526 C -24.62211 44.60526 -44.60526 24.6221 -44.60526 0 C -44.60526 -24.62211 -24.6221 -44.60526 0 -44.60526 z"
      stroke-linecap="round" />
  </g>
  <g transform="matrix(0.56 0.15 -0.5 1.85 540 215)" id="p_cZ_YLdOCXdig8jXUTPh">
    <path
      style="stroke: rgb(53,215,132); stroke-width: 0; stroke-dasharray: none; stroke-linecap: butt; stroke-dashoffset: 0; stroke-linejoin: miter; stroke-miterlimit: 4; fill: #170e19; fill-rule: nonzero; opacity: 1;"
      vector-effect="non-scaling-stroke" transform=" translate(0, 0)"
      d="M 0 -35.92106 C 19.82842 -35.92106 35.92106 -19.828429999999997 35.92106 0 C 35.92106 19.82842 19.828429999999997 35.92106 0 35.92106 C -19.82842 35.92106 -35.92106 19.828429999999997 -35.92106 0 C -35.92106 -19.82842 -19.828429999999997 -35.92106 0 -35.92106 z"
      stroke-linecap="round" />
  </g>
  <g transform="matrix(0.56 -0.15 0.49 1.84 460 215)" id="q8tF0WjwaaDIztS91KLhF">
    <path
      style="stroke: rgb(53,215,132); stroke-width: 0; stroke-dasharray: none; stroke-linecap: butt; stroke-dashoffset: 0; stroke-linejoin: miter; stroke-miterlimit: 4; fill: #170e19; fill-rule: nonzero; opacity: 1;"
      vector-effect="non-scaling-stroke" transform=" translate(0, 0)"
      d="M 0 -35.92106 C 19.82842 -35.92106 35.92106 -19.828429999999997 35.92106 0 C 35.92106 19.82842 19.828429999999997 35.92106 0 35.92106 C -19.82842 35.92106 -35.92106 19.828429999999997 -35.92106 0 C -35.92106 -19.82842 -19.828429999999997 -35.92106 0 -35.92106 z"
      stroke-linecap="round" />
  </g>
</svg>