<?xml version="1.0" encoding="UTF-8" standalone="no"?>
<svg xmlns="http://www.w3.org/2000/svg"
  xmlns:xlink="http://www.w3.org/1999/xlink" version="1.1" viewBox="0 0 189 189">
  <g transform="matrix(1.5 0 0 0.9 94.5 148.2)">
    <path style="stroke-width: 0; fill: #170e19;" d="M 0 -44 C 24 -44 44 -24 44 0 C 44 24 24 44 0 44 C -24 44 -44 24 -44 0 C -44 -24 -24 -44 0 -44 z" />
  </g>
  <g transform="matrix(0.5 0.15 -0.5 1.8 135 64)">
    <path style="stroke-width: 0; fill: #170e19;" d="M 0 -35 C 19 -35 35 -19 35 0 C 35 19 19 35 0 35 C -19 35 -35 19 -35 0 C -35 -19 -19 -35 0 -35 z" />
  </g>
  <g transform="matrix(0.5 -0.15 0.5 1.8 55 64)">
    <path style="stroke-width: 0; fill: #170e19;" d="M 0 -35 C 19 -35 35 -19 35 0 C 35 19 19 35 0 35 C -19 35 -35 19 -35 0 C -35 -19 -19 -35 0 -35 z" />
  </g>
</svg>