<svg viewBox="0 0 50 50" fill="none"
  xmlns="http://www.w3.org/2000/svg">
  <path d="M13.8392 7.63903H11.6076C8.48229 7.63903 6.91848 7.63903 5.72478 8.17968C4.67476 8.65522 3.82169 9.41351 3.2867 10.3469C2.67847 11.4079 2.67847 12.798 2.67847 15.576V17.5597M13.8392 7.63903H36.1606M13.8392 7.63903V2.67871M2.67847 17.5597V39.3856C2.67847 42.1636 2.67847 43.552 3.2867 44.613C3.82169 45.5463 4.67476 46.3059 5.72478 46.7814C6.91731 47.3216 8.47922 47.3216 11.5984 47.3216H38.4014C41.5205 47.3216 43.0803 47.3216 44.2728 46.7814C45.3227 46.3059 46.1787 45.5463 46.7136 44.613C47.3213 43.553 47.3213 42.1666 47.3213 39.394V17.5597M2.67847 17.5597H47.3213M36.1606 7.63903H38.3933C41.5186 7.63903 43.0791 7.63903 44.2728 8.17968C45.3227 8.65522 46.1787 9.41351 46.7136 10.3469C47.3213 11.4069 47.3213 12.7953 47.3213 15.5679V17.5597M36.1606 7.63903V2.67871M36.1606 37.4009H36.1662V37.4059H36.1606V37.4009ZM24.9999 37.4009H25.0055V37.4059H24.9999V37.4009ZM13.8392 37.4009H13.8448L13.8446 37.4059H13.8392V37.4009ZM36.1662 27.4803V27.4853H36.1606V27.4803H36.1662ZM24.9999 27.4803H25.0055V27.4853H24.9999V27.4803ZM13.8392 27.4803H13.8448L13.8446 27.4853H13.8392V27.4803Z" stroke="#170E19" stroke-width="5" stroke-linecap="round" stroke-linejoin="round"/>
</svg>
