<?xml version="1.0" encoding="iso-8859-1"?>
<!-- Generator: Adobe Illustrator 19.0.0, SVG Export Plug-In . SVG Version: 6.00 Build 0)  -->
<svg version="1.1" id="Layer_1" xmlns="http://www.w3.org/2000/svg" xmlns:xlink="http://www.w3.org/1999/xlink" x="0px" y="0px"
	 viewBox="0 0 512 512" style="enable-background:new 0 0 512 512;" xml:space="preserve">
<g>
	<g>
		<g>
			<path d="M476.352,247.979l-85.333-74.667c-3.136-2.731-7.616-3.392-11.435-1.685c-3.819,1.728-6.251,5.525-6.251,9.707v32H256
				c-5.888,0-10.667,4.779-10.667,10.667v64c0,5.888,4.779,10.667,10.667,10.667h117.333v32c0,4.181,2.453,7.979,6.251,9.707
				c1.408,0.64,2.923,0.96,4.416,0.96c2.539,0,5.035-0.896,7.019-2.645l85.333-74.667c2.325-2.027,3.648-4.949,3.648-8.021
				S478.677,250.005,476.352,247.979z"/>
			<path d="M341.333,320H256c-17.643,0-32-14.357-32-32v-64c0-17.643,14.357-32,32-32h85.333c5.888,0,10.667-4.779,10.667-10.667V32
				c0-17.643-14.357-32-32-32H64C46.357,0,32,14.357,32,32v448c0,17.643,14.357,32,32,32h256c17.643,0,32-14.357,32-32V330.667
				C352,324.779,347.221,320,341.333,320z"/>
		</g>
	</g>
</g>
<g>
</g>
<g>
</g>
<g>
</g>
<g>
</g>
<g>
</g>
<g>
</g>
<g>
</g>
<g>
</g>
<g>
</g>
<g>
</g>
<g>
</g>
<g>
</g>
<g>
</g>
<g>
</g>
<g>
</g>
</svg>
