<svg viewBox="0 0 56 56" fill="none"
  xmlns="http://www.w3.org/2000/svg">
  <path d="M32.6205 51.4158L48.3829 43.2827C50.0656 42.4145 50.9054 41.9803 51.5171 41.373C52.0586 40.8356 52.468 40.2025 52.718 39.515C53 38.7395 53 37.8729 53 36.1446V19.8548C53 18.1265 53 17.2601 52.718 16.4847C52.468 15.797 52.0586 15.1635 51.5171 14.6261C50.908 14.0214 50.0702 13.5892 48.4019 12.7284L32.6176 4.58411C30.9349 3.7159 30.0955 3.28265 29.2008 3.11277C28.4096 2.96241 27.5912 2.96241 26.7999 3.11277C25.9053 3.28268 25.0629 3.7159 23.3802 4.58411L7.61477 12.7187C5.93409 13.5859 5.09438 14.0192 4.48288 14.6261C3.94146 15.1635 3.53261 15.797 3.28259 16.4847C3 17.2619 3 18.1306 3 19.867V36.1332C3 37.8695 3 38.7377 3.28259 39.515C3.53261 40.2025 3.94146 40.8356 4.48288 41.373C5.09476 41.9803 5.93507 42.4145 7.61772 43.2827L23.3802 51.4158C25.0629 52.2839 25.9053 52.7174 26.7999 52.8874C27.5912 53.0375 28.4096 53.0375 29.2008 52.8874C30.0955 52.7174 30.9378 52.2839 32.6205 51.4158Z" stroke="black" stroke-width="5.77355" stroke-linecap="round" stroke-linejoin="round"/>
  <path d="M19.3396 27.9996C19.3396 32.274 23.2168 35.7393 27.9999 35.7393C32.783 35.7393 36.6603 32.274 36.6603 27.9996C36.6603 23.7249 32.783 20.2598 27.9999 20.2598C23.2168 20.2598 19.3396 23.7249 19.3396 27.9996Z" stroke="black" stroke-width="5.77355" stroke-linecap="round" stroke-linejoin="round"/>
</svg>
