<svg viewBox="0 0 50 50" fill="none"
  xmlns="http://www.w3.org/2000/svg">
  <path d="M25.002 3.11815L31.7092 17.4745L46.9612 19.8144L35.9153 31.1863L36.2869 33.4682L38.4961 47.0736L25.0005 39.582L11.5065 47.0784L13.7157 33.4714L14.0857 31.1896L3.04284 19.8144L18.2933 17.4745L19.2956 15.3329L25.002 3.11815ZM25.0005 0C23.6016 0 22.3276 0.813781 21.7327 2.08844L16.0778 14.2065L3.0647 16.2031C1.72825 16.4094 0.618195 17.3521 0.187286 18.6396C-0.243623 19.932 0.0826814 21.3533 1.02569 22.3234L10.5588 32.1532L8.34646 45.7828C8.1232 47.1558 8.69931 48.5336 9.8281 49.3377C10.4479 49.7776 11.177 50 11.9077 50C12.5088 50 13.1099 49.8501 13.6548 49.5472L24.9989 43.2432L36.3431 49.5472C36.888 49.8485 37.4906 50 38.0886 50C38.8192 50 39.5468 49.7776 40.1697 49.3377C41.297 48.5352 41.8731 47.1574 41.6483 45.7828L39.4359 32.1532L48.9753 22.3234C49.9198 21.3549 50.243 19.9304 49.8121 18.6396C49.3812 17.3488 48.2696 16.4078 46.9347 16.2031L33.9247 14.2065L28.2666 2.08844C27.6765 0.813781 26.4009 0.00161143 24.9989 0.00161143L25.0005 0Z" fill="#170E19"/>
</svg>
