<svg width="50" height="48" viewBox="0 0 50 48" fill="none" xmlns="http://www.w3.org/2000/svg">
<path fill-rule="evenodd" clip-rule="evenodd" d="M0 18.9087V30.0198C0 31.5476 1.25 32.7976 2.77778 32.7976H11.1111L20.25 41.9365C22 43.6865 25 42.4365 25 39.9643V8.93647C25 6.46425 22 5.21425 20.25 6.96425L11.1111 16.1309H2.77778C1.25 16.1309 0 17.3809 0 18.9087ZM37.5 24.4643C37.5 19.5476 34.6667 15.3254 30.5556 13.2698V35.6309C34.6667 33.6031 37.5 29.3809 37.5 24.4643ZM30.5556 3.49203V4.04758C30.5556 5.10314 31.25 6.01981 32.2222 6.4087C39.3889 9.26981 44.4444 16.2976 44.4444 24.4643C44.4444 32.6309 39.3889 39.6587 32.2222 42.5198C31.2222 42.9087 30.5556 43.8254 30.5556 44.8809V45.4365C30.5556 47.1865 32.3056 48.4087 33.9167 47.7976C43.3333 44.2143 50 35.1309 50 24.4643C50 13.7976 43.3333 4.71425 33.9167 1.13092C32.3056 0.492029 30.5556 1.74203 30.5556 3.49203Z" fill="black"/>
</svg>
