<svg width="50" height="49" viewBox="0 0 50 49" fill="none" xmlns="http://www.w3.org/2000/svg">
<path fill-rule="evenodd" clip-rule="evenodd" d="M1.75 1.42139C0.666667 2.50472 0.666667 4.25472 1.75 5.33805L11.9167 15.5047L11.1111 16.3381H2.77778C1.25 16.3381 0 17.5881 0 19.1158V30.2269C0 31.7547 1.25 33.0047 2.77778 33.0047H11.1111L20.25 42.1436C22 43.8936 25 42.6436 25 40.1714V28.5881L36.6111 40.1992C35.25 41.2269 33.7778 42.0881 32.1667 42.7269C31.1667 43.1436 30.5556 44.1992 30.5556 45.2825C30.5556 47.2825 32.5833 48.5603 34.4167 47.8103C36.6389 46.8936 38.7222 45.6714 40.5833 44.1714L44.3056 47.8936C45.3889 48.977 47.1389 48.977 48.2222 47.8936C49.3056 46.8103 49.3056 45.0603 48.2222 43.9769L5.69444 1.42139C4.61111 0.338053 2.86111 0.338053 1.75 1.42139ZM44.4444 24.6714C44.4444 26.9492 44.0278 29.1436 43.3056 31.1714L47.5556 35.4214C49.1111 32.1714 50 28.5325 50 24.6714C50 14.0325 43.3333 4.92139 33.9444 1.33805C32.3056 0.699164 30.5556 1.97694 30.5556 3.72694V4.25472C30.5556 5.31028 31.25 6.22694 32.25 6.61583C39.3889 9.50472 44.4444 16.5047 44.4444 24.6714ZM20.25 7.19917L19.7778 7.67139L25 12.8936V9.14361C25 6.67139 22 5.44916 20.25 7.19917ZM37.5 24.6714C37.5 19.7547 34.6667 15.5325 30.5556 13.4769V18.4492L37.4444 25.3381C37.4722 25.1158 37.5 24.8936 37.5 24.6714Z" fill="black"/>
</svg>
